<svg xmlns="http://www.w3.org/2000/svg" width="1920" height="960.791" viewBox="0 0 1920 960.791">
  <defs>
    <style>
      .cls-1 {
        fill: #fff;
      }

      .cls-2 {
        fill: #5a5a5a;
      }

      .cls-3 {
        fill: #203881;
      }
    </style>
  </defs>
  <g id="Group_1" data-name="Group 1" transform="translate(1988)">
    <path id="Path_50" data-name="Path 50" class="cls-1" d="M0,0H1920V902.313s-484.937,55.476-964.937,55.476S0,902.313,0,902.313Z" transform="translate(-1988)"/>
    <path id="Path_51" data-name="Path 51" class="cls-2" d="M78.486-35.914s114.667-2.623,217.58,37c44.047,16.958,86.892,51.26,119.443,73.7C458.854,104.674,493.025,125,493.025,125S371.4,154.733,278.669,201.934s-159.6,109.739-159.6,109.739l-40.582-4.408Z" transform="translate(-2066.486 595)"/>
    <path id="Path_52" data-name="Path 52" class="cls-3" d="M231.863,169.862c420.229,3.651,1061.873,228.663,1061.873,228.663s-452.3,42.713-872.53,39.062-812.071-53.954-812.071-53.954S-188.366,166.211,231.863,169.862Z" transform="translate(-1557 522.982)"/>
    <path id="Path_53" data-name="Path 53" class="cls-2" d="M212.963,149.934c38.859,0,87.545,2.164,135.9,12.979,41.871,9.365,82.933,26.88,124.444,35.119,32.863,6.522,67.141,14.63,98.486,17.281,19.088,1.614,158.625.83,251.942-17.281,102.837-19.959,159.327-57.53,159.327-57.53L982.944,406.7,786.432,426.573S586.179,359.492,377.441,306.889-48.523,216.164-48.523,216.164,78.455,149.934,212.963,149.934Z" transform="translate(-1051.059 495)"/>
  </g>
</svg>
